# xmcd
#
# Track frame offsets:
#	150
#	18510
#	31719
#	50197
#	68912
#	84324
#	101885
#	124720
#	141662
#	157262
#	171447
#	184792
#	199524
#
# Disc length: 2974 seconds
#
# Revision: 1
# Processed by: cddbd v1.4PL0 Copyright (c) Steve Scherf et al.
# Submitted via: audiograbber 1.80.04
#
DISCID=bd0b9c0d
DTITLE=Alan Jackson - Drive
DYEAR=2002
DGENRE=Country
TTITLE0=Drive (For Daddy Gene)
TTITLE1=A Little bluer Than That
TTITLE2=Bring Out The Night
TTITLE3=Work In Progress
TTITLE4=The Sounds
TTITLE5=Designated Drinker (A Duet With George Strait)
TTITLE6=Where Were You (When The World Stopped Turning)
TTITLE7=That'd Be Alright
TTITLE8=Once In A Lifetime Love
TTITLE9=When Love Comes Around
TTITLE10=I Slipped And Fell In Love
TTITLE11=First Love
TTITLE12=Where Were You (When The World Stopped Turning ) Live At The CMA
EXTD=
EXTT0=
EXTT1=
EXTT2=
EXTT3=
EXTT4=
EXTT5=
EXTT6=
EXTT7=
EXTT8=
EXTT9=
EXTT10=
EXTT11=
EXTT12=
PLAYORDER=
